<svg xmlns="http://www.w3.org/2000/svg" viewBox="0 0 512 512">
  <defs>
    <linearGradient id="bg" x1="0%" y1="0%" x2="100%" y2="100%">
      <stop offset="0%" stop-color="#111827" />
      <stop offset="100%" stop-color="#1d4ed8" />
    </linearGradient>
    <linearGradient id="glass" x1="0%" y1="0%" x2="100%" y2="100%">
      <stop offset="0%" stop-color="rgba(255,255,255,0.92)" />
      <stop offset="100%" stop-color="rgba(255,255,255,0.62)" />
    </linearGradient>
  </defs>
  <rect width="512" height="512" rx="120" fill="url(#bg)" />
  <rect x="112" y="64" width="288" height="384" rx="56" fill="url(#glass)" opacity="0.94" />
  <rect x="176" y="112" width="160" height="18" rx="9" fill="#111827" opacity="0.16" />
  <circle cx="256" cy="352" r="72" fill="#111827" opacity="0.14" />
  <path
    d="M196 208c0-33.137 26.863-60 60-60s60 26.863 60 60-26.863 60-60 60c-10.247 0-19.894-2.57-28.333-7.101L196 332l20.762-39.22A59.67 59.67 0 0 1 196 208Z"
    fill="#2563eb"
  />
  <path
    d="M228 206h56M228 234h38"
    stroke="#eff6ff"
    stroke-width="18"
    stroke-linecap="round"
    fill="none"
  />
</svg>
