<svg xmlns="http://www.w3.org/2000/svg" viewBox="0 0 760 520" role="img" aria-label="Delivery rider on a teal scooter">
  <defs>
    <linearGradient id="tealBody" x1="95" y1="390" x2="610" y2="120" gradientUnits="userSpaceOnUse">
      <stop offset="0" stop-color="#28d4cb"/>
      <stop offset="0.58" stop-color="#45d9d2"/>
      <stop offset="1" stop-color="#69e6df"/>
    </linearGradient>
    <linearGradient id="helmet" x1="220" y1="35" x2="495" y2="225" gradientUnits="userSpaceOnUse">
      <stop offset="0" stop-color="#56dfd7"/>
      <stop offset="0.55" stop-color="#36cbc5"/>
      <stop offset="1" stop-color="#1fa7bd"/>
    </linearGradient>
    <linearGradient id="skin" x1="260" y1="115" x2="455" y2="260" gradientUnits="userSpaceOnUse">
      <stop offset="0" stop-color="#ffe8cb"/>
      <stop offset="1" stop-color="#f5b99b"/>
    </linearGradient>
    <linearGradient id="box" x1="495" y1="190" x2="680" y2="365" gradientUnits="userSpaceOnUse">
      <stop offset="0" stop-color="#62e4df"/>
      <stop offset="1" stop-color="#1995bd"/>
    </linearGradient>
    <radialGradient id="wheelHighlight" cx="38%" cy="34%" r="70%">
      <stop offset="0" stop-color="#ffffff"/>
      <stop offset="0.42" stop-color="#e7edf2"/>
      <stop offset="1" stop-color="#a6b0b8"/>
    </radialGradient>
    <filter id="softDepth" x="-20%" y="-20%" width="140%" height="145%">
      <feDropShadow dx="0" dy="13" stdDeviation="12" flood-color="#0f766e" flood-opacity="0.18"/>
    </filter>
    <filter id="innerSoft" x="-20%" y="-20%" width="140%" height="140%">
      <feDropShadow dx="0" dy="8" stdDeviation="6" flood-color="#0f172a" flood-opacity="0.12"/>
    </filter>
  </defs>

  <g filter="url(#softDepth)">
    <path d="M156 389c20-78 71-128 158-150 56-14 119-7 181 21 29 14 61 14 96 1 30-11 62 3 78 29 13 22 10 50-8 70l-66 74c-20 22-48 35-78 35H222c-54 0-91-36-66-80Z" fill="url(#tealBody)"/>
    <path d="M206 373c47-66 111-91 193-75 42 8 77 26 105 55 17 17 20 43 7 64-13 22-36 35-61 35H236c-43 0-59-33-30-79Z" fill="#36d5ce"/>
    <path d="M122 401c18-25 52-30 77-12 24 18 29 52 11 76-18 25-52 30-76 12-25-18-30-52-12-76Z" fill="#20252a"/>
    <circle cx="166" cy="433" r="41" fill="#2a3036"/>
    <circle cx="166" cy="433" r="24" fill="url(#wheelHighlight)"/>
    <circle cx="166" cy="433" r="11" fill="#f7fafc"/>
    <path d="M520 398c18-25 52-30 77-12 24 18 29 52 11 76-18 25-52 30-76 12-25-18-30-52-12-76Z" fill="#20252a"/>
    <circle cx="564" cy="430" r="41" fill="#2a3036"/>
    <circle cx="564" cy="430" r="24" fill="url(#wheelHighlight)"/>
    <circle cx="564" cy="430" r="11" fill="#f7fafc"/>
    <path d="M174 282c-15 19-24 49-27 89h75c-2-29 3-51 16-66 11-13 29-19 54-18l2-54c-49-5-89 10-120 49Z" fill="#3fd9d1"/>
    <path d="M218 258c15-22 32-30 51-24 16 6 22 23 14 50l-41 126h-58l24-80c7-23 7-41 0-55-4-8-1-14 10-17Z" fill="#39d3cb"/>
    <path d="M229 223c-6-23 4-37 29-43l43-11c14-3 27 6 30 20 4 15-5 29-20 33l-42 11c-12 3-20 12-23 26l-17-36Z" fill="#ffe07a"/>
  </g>

  <g filter="url(#innerSoft)">
    <path d="M457 197c16-29 48-42 80-33l86 24c26 7 44 30 44 58v93c0 35-28 63-63 63h-90c-34 0-62-28-62-62V225c0-10 2-19 5-28Z" fill="url(#box)"/>
    <path d="M500 207c11-13 28-18 45-13l72 20c15 4 25 18 25 34v78c0 20-16 36-36 36h-67c-20 0-36-16-36-36V214c0-3 0-5 2-7Z" fill="#40cdd4" opacity=".85"/>
    <circle cx="574" cy="285" r="48" fill="#e6fbff"/>
    <path d="M545 277c0-13 8-22 20-22 7 0 13 3 17 9 4-6 10-9 17-9 12 0 20 9 20 22 0 20-18 34-37 47-19-13-37-27-37-47Z" fill="#29b7c6"/>
  </g>

  <g filter="url(#innerSoft)">
    <path d="M250 210c8-36 37-65 73-74 46-11 95 12 113 54 16 37 2 81-32 104-37 25-88 23-121-7-24-22-38-53-33-87Z" fill="url(#skin)"/>
    <path d="M231 158c-7-69 45-130 114-136 75-7 142 46 150 119l-27 39c-43-18-103-29-171-31-25-1-47 3-66 9Z" fill="url(#helmet)"/>
    <path d="M260 68c38-25 82-30 132-15 35 11 61 33 76 67-68-21-137-25-205-12-3-15-4-28-3-40Z" fill="#6cece5" opacity=".7"/>
    <path d="M251 117c52-17 111-16 177 2 11 3 18 13 17 24l-1 11c-70-20-136-22-197-6l4-31Z" fill="#e8ffff" opacity=".82"/>
    <path d="M430 131c35 10 58 31 68 61 11 33 3 65-25 94-10-41-20-78-30-111-4-14-8-26-13-44Z" fill="#2195b5"/>
    <path d="M289 176c28-19 64-25 108-17 22 4 38 22 38 44 0 30-24 54-54 54h-65c-28 0-50-23-50-51 0-11 5-21 23-30Z" fill="#ffe5c8"/>
    <circle cx="306" cy="208" r="45" fill="#1d242b"/>
    <circle cx="407" cy="208" r="45" fill="#1d242b"/>
    <circle cx="306" cy="208" r="32" fill="#fffaf1"/>
    <circle cx="407" cy="208" r="32" fill="#fffaf1"/>
    <path d="M345 206c14-6 28-6 42 0" fill="none" stroke="#1d242b" stroke-width="12" stroke-linecap="round"/>
    <path d="M306 220c7-6 15-7 24-3" fill="none" stroke="#2b1612" stroke-width="7" stroke-linecap="round"/>
    <path d="M402 219c7-5 15-6 24-2" fill="none" stroke="#2b1612" stroke-width="7" stroke-linecap="round"/>
    <path d="M354 233c-2 13-9 21-20 24" fill="none" stroke="#d48b72" stroke-width="5" stroke-linecap="round"/>
    <path d="M325 276c26 18 55 18 87 0" fill="none" stroke="#5d3c32" stroke-width="6" stroke-linecap="round"/>
    <path d="M278 290c22-23 52-31 91-24 34 6 64 24 91 53 16 17 15 43-2 59-16 16-41 15-57-1-22-23-44-35-65-36-23-1-43 9-59 30l-62-30c15-21 35-37 63-51Z" fill="#d9e7ee"/>
    <path d="M319 338c34 29 70 50 108 62 18 6 38-3 47-20 10-19 3-41-16-51-49-25-87-41-115-48l-24 57Z" fill="#dceaf0"/>
    <path d="M226 310c25-27 56-31 94-12 20 10 29 34 19 54-10 21-34 30-54 19-12-6-23-4-33 8l-26-69Z" fill="#eef5f7"/>
    <path d="M246 370c-5 13-17 20-31 16l-25-7c-12-3-19-15-16-27 4-13 17-20 29-15l24 8c12 4 18 14 19 25Z" fill="#ffe3c4"/>
    <path d="M278 371c28 30 61 50 98 60 18 5 37-5 45-22 8-18 0-39-18-48-33-16-58-34-76-54l-49 64Z" fill="#272427"/>
    <path d="M330 426c13 16 31 26 55 30 17 3 34-6 40-22 6-17-2-35-19-42-29-12-52-26-67-41l-9 75Z" fill="#1d1d20"/>
    <path d="M405 456c21 2 38-1 53-9 11-6 15-20 9-31-6-10-19-14-30-9l-36 17 4 32Z" fill="#7b4d34"/>
    <path d="M319 368c24 13 48 24 72 33" fill="none" stroke="#41434b" stroke-width="7" stroke-linecap="round" opacity=".35"/>
  </g>
</svg>
